Coordinates
version=1
nRows=29
nColumns=24
inDegrees=yes

Units are S.I. units (second, meters, Newtons, ...)
Angles are in degrees.

endheader
time	pelvis_tilt	pelvis_list	pelvis_rotation	pelvis_tx	pelvis_ty	pelvis_tz	hip_flexion_r	hip_adduction_r	hip_rotation_r	knee_angle_r	ankle_angle_r	subtalar_angle_r	mtp_angle_r	hip_flexion_l	hip_adduction_l	hip_rotation_l	knee_angle_l	ankle_angle_l	subtalar_angle_l	mtp_angle_l	lumbar_extension	lumbar_bending	lumbar_rotation
      0.72900000	      2.58995053	      2.50723326	      0.49633249	     -0.46791869	      1.02283627	      0.26851374	      6.22303922	      1.82429407	      1.04165981	    -12.85473305	      5.39779843	    -14.25571176	      5.12147220	     14.38346341	      0.95379852	     -6.77255278	    -67.21724472	      2.72927743	    -16.95095097	     -4.05606813	     -6.43228489	     -2.77415065	      4.27852259
      0.73316667	      2.58434444	      2.66239603	      0.34965254	     -0.46296824	      1.02369372	      0.26874332	      5.76071233	      1.65934565	      1.13725684	    -12.52776005	      5.49967744	    -14.12785536	      5.12788101	     14.87485059	      1.12719383	     -6.86002039	    -66.84256032	      2.88463409	    -17.09685546	     -4.06098247	     -6.45581634	     -2.94757828	      4.55316039
      0.73733333	      2.55921756	      2.81115429	      0.19709979	     -0.45801375	      1.02447113	      0.26895355	      5.32431886	      1.49677093	      1.22850648	    -12.20670143	      5.60437937	    -13.99325681	      5.13533648	     15.37518019	      1.29454651	     -6.94362203	    -66.41299852	      3.04786416	    -17.15772524	     -4.06389857	     -6.44832868	     -3.10244620	      4.81111187
      0.74150000	      2.52772290	      2.96658609	      0.03670704	     -0.45303777	      1.02519921	      0.26916706	      4.89367471	      1.32312629	      1.30021689	    -11.87835587	      5.67972461	    -13.85503017	      5.14126691	     15.86473578	      1.46317384	     -7.03753341	    -65.92145420	      3.21773002	    -17.15567133	     -4.06314374	     -6.42078230	     -3.27894621	      5.00203676
      0.74566667	      2.52801385	      3.11884848	     -0.13065740	     -0.44806777	      1.02595924	      0.26935459	      4.42959296	      1.14799138	      1.38018667	    -11.55194424	      5.78872217	    -13.69225859	      5.15044552	     16.29940140	      1.63297493	     -7.12259123	    -65.35515492	      3.36228257	    -17.09439775	     -4.05965748	     -6.43500308	     -3.42628212	      5.29425579
      0.74983333	      2.50091144	      3.25584042	     -0.29880940	     -0.44309208	      1.02659388	      0.26955240	      3.99832192	      0.98787722	      1.44278979	    -11.22967852	      5.93497579	    -13.49734261	      5.16561593	     16.75771199	      1.77529616	     -7.21413489	    -64.75766975	      3.51868197	    -16.97946425	     -4.04888360	     -6.42244155	     -3.58323555	      5.66175829
      0.75400000	      2.45075768	      3.38359838	     -0.45354012	     -0.43810177	      1.02717351	      0.26971991	      3.57969264	      0.83501740	      1.50517883	    -10.87835043	      5.98723070	    -13.35069430	      5.17247852	     17.22750209	      1.91189393	     -7.28412177	    -64.10611827	      3.66335260	    -16.82768239	     -4.04009904	     -6.38032736	     -3.73301963	      5.80143870
      0.75816667	      2.45730554	      3.51283141	     -0.64279481	     -0.43311610	      1.02777383	      0.26989379	      3.11748750	      0.67507935	      1.56772946	    -10.56198618	      6.13040191	    -13.14968048	      5.18938969	     17.60934645	      2.04115721	     -7.38279031	    -63.38796552	      3.84051572	    -16.56010638	     -4.01468157	     -6.39576672	     -3.85454029	      6.18896815
      0.76233333	      2.41953999	      3.63654050	     -0.82182131	     -0.42812933	      1.02825459	      0.27005114	      2.70208678	      0.51938385	      1.62582961	    -10.23909759	      6.23305790	    -12.95870939	      5.20760864	     18.03019832	      2.16624772	     -7.46552159	    -62.62719279	      3.99652136	    -16.28579695	     -3.98142615	     -6.36473531	     -3.98329498	      6.47888055
      0.76650000	      2.38492761	      3.76436387	     -0.99880652	     -0.42313631	      1.02871268	      0.27018949	      2.28366732	      0.35552142	      1.67571474	     -9.91431797	      6.28909854	    -12.78316546	      5.21957020	     18.42703344	      2.29781571	     -7.54115168	    -61.80202565	      4.12855329	    -15.99139536	     -3.95585741	     -6.33176366	     -4.11547772	      6.66812000
      0.77066667	      2.38546904	      3.86013900	     -1.18292748	     -0.41813582	      1.02914079	      0.27033878	      1.81970712	      0.22439029	      1.72438096	     -9.57548039	      6.43027187	    -12.56664998	      5.24183156	     18.77357523	      2.38271712	     -7.62396559	    -60.95119715	      4.30737258	    -15.61636617	     -3.90392865	     -6.34895591	     -4.21368165	      7.02429522
      0.77483333	      2.34793379	      3.96827288	     -1.36959232	     -0.41313437	      1.02947491	      0.27046703	      1.40978321	      0.07723332	      1.77112370	     -9.25706166	      6.49781556	    -12.38941923	      5.25761476	     19.14106577	      2.48483714	     -7.70115217	    -60.03545804	      4.43835107	    -15.24364023	     -3.86205859	     -6.30880248	     -4.32118560	      7.24410428
      0.77900000	      2.33324841	      4.06348212	     -1.55087404	     -0.40813917	      1.02979034	      0.27058810	      0.96903541	     -0.05825930	      1.81458993	     -8.92551368	      6.58473700	    -12.19782905	      5.27373216	     19.46820554	      2.57000119	     -7.77298640	    -59.07575412	      4.57657164	    -14.83630380	     -3.81718567	     -6.30242198	     -4.42241176	      7.49336980
      0.78316667	      2.31935688	      4.14447599	     -1.73092191	     -0.40313171	      1.03004996	      0.27069951	      0.52713219	     -0.18037303	      1.85488636	     -8.59506988	      6.67433827	    -12.00904649	      5.28969499	     19.77796978	      2.63797910	     -7.84017632	    -58.07595637	      4.70584576	    -14.41389040	     -3.77041054	     -6.29621776	     -4.50176531	      7.74764758
      0.78733333	      2.29498134	      4.21520968	     -1.91293084	     -0.39812832	      1.03021885	      0.27081059	      0.10366211	     -0.29213779	      1.89741096	     -8.27839967	      6.78443099	    -11.81800325	      5.30846894	     20.08357129	      2.69166531	     -7.90383835	    -57.03767703	      4.83527048	    -13.97315066	     -3.71351425	     -6.27348020	     -4.56584936	      8.03176515
      0.79150000	      2.30789223	      4.26518737	     -2.08884813	     -0.39313164	      1.03039257	      0.27090635	     -0.37131346	     -0.38524814	      1.93447284	     -7.93842643	      6.92059045	    -11.60422006	      5.33859143	     20.33318761	      2.72339485	     -7.95887610	    -55.96269644	      4.96544405	    -13.52109113	     -3.61640407	     -6.31247327	     -4.60738074	      8.39300614
      0.79566667	      2.27878954	      4.32427618	     -2.26569429	     -0.38811622	      1.03046809	      0.27099617	     -0.78831361	     -0.48833389	      1.96921834	     -7.62292040	      7.02471806	    -11.42382093	      5.36702966	     20.60531905	      2.76290187	     -8.01656011	    -54.83098396	      5.05146771	    -13.08457755	     -3.51957240	     -6.28504687	     -4.66127479	      8.66243664
      0.79983333	      2.28249013	      4.37441787	     -2.43717351	     -0.38311405	      1.03053896	      0.27106907	     -1.24176998	     -0.58584478	      1.99878917	     -7.30469661	      7.12141547	    -11.23888989	      5.39715801	     20.82278783	      2.79891790	     -8.05645124	    -53.65207776	      5.11471891	    -12.65483026	     -3.41435409	     -6.30151350	     -4.70525289	      8.92585762
      0.80400000	      2.23855587	      4.42944510	     -2.59892190	     -0.37810079	      1.03049884	      0.27112630	     -1.63320421	     -0.68699816	      2.01884961	     -7.00828841	      7.18445492	    -11.08513025	      5.41469455	     21.07184127	      2.84262197	     -8.08391796	    -52.42268445	      5.12787347	    -12.25262252	     -3.35285421	     -6.25202278	     -4.75749747	      9.09665669
      0.80816667	      2.22263458	      4.45881245	     -2.75696211	     -0.37309232	      1.03043326	      0.27117327	     -2.05906866	     -0.76254601	      2.04168563	     -6.70584906	      7.28635709	    -10.91572543	      5.43523586	     21.27548329	      2.85646784	     -8.10697944	    -51.16677979	      5.14793253	    -11.83670665	     -3.28089669	     -6.24611462	     -4.77913514	      9.33560919
      0.81233333	      2.18885350	      4.47937163	     -2.90624337	     -0.36808003	      1.03028594	      0.27121243	     -2.46062289	     -0.82781469	      2.05928667	     -6.41599743	      7.39172889	    -10.75091060	      5.45647729	     21.48048385	      2.86317965	     -8.11600284	    -49.87335169	      5.14089603	    -11.45033645	     -3.20524247	     -6.21850670	     -4.78743325	      9.57977163
      0.81650000	      2.18848207	      4.49028059	     -3.05185023	     -0.36308142	      1.03014142	      0.27123508	     -2.90119666	     -0.88641504	      2.07917604	     -6.11998861	      7.53775241	    -10.56096435	      5.49085872	     21.63014212	      2.86132620	     -8.12364186	    -48.53996063	      5.11949795	    -11.09705870	     -3.07521341	     -6.24737376	     -4.77752509	      9.91007207
      0.82066667	      2.13517773	      4.51225670	     -3.17908393	     -0.35804697	      1.02990765	      0.27123769	     -3.27361541	     -0.95262144	      2.07761299	     -5.85054597	      7.60421177	    -10.43443341	      5.50898558	     21.81021753	      2.87859558	     -8.10471080	    -47.14499764	      5.02308366	    -10.76901950	     -3.00538558	     -6.18763499	     -4.79201302	     10.05690329
      0.82483333	      2.13681093	      4.51802798	     -3.30868393	     -0.35304369	      1.02968845	      0.27122739	     -3.70732249	     -1.00685706	      2.09028844	     -5.57648078	      7.75199026	    -10.25346725	      5.54329108	     21.91198489	      2.88371041	     -8.08104134	    -45.71595052	      4.92945874	    -10.49150959	     -2.87022684	     -6.22109653	     -4.78017575	     10.34899584
      0.82900000	      2.04291052	      4.51872989	     -3.40954507	     -0.34798885	      1.02930124	      0.27119306	     -4.03112919	     -1.04598149	      2.07624551	     -5.32479618	      7.82530470	    -10.15105418	      5.55903817	     22.09955371	      2.87921670	     -8.04494312	    -44.25489785	      4.78678340	    -10.20566996	     -2.80693300	     -6.12078515	     -4.76050402	     10.46739096
      0.83316667	      2.06745011	      4.52455274	     -3.52516514	     -0.34297687	      1.02906213	      0.27116478	     -4.47812291	     -1.10074253	      2.08236166	     -5.07880473	      7.96792610	     -9.98167001	      5.59200371	     22.12255637	      2.89867744	     -7.98872932	    -42.71705537	      4.61681033	    -10.01788507	     -2.66569803	     -6.17320765	     -4.75602158	     10.73751717
      0.83733333	      1.99053115	      4.51461926	     -3.61775113	     -0.33793576	      1.02862456	      0.27112615	     -4.80309080	     -1.12744865	      2.08085014	     -4.86730924	      8.07207312	     -9.86703791	      5.61683714	     22.24269430	      2.89309215	     -7.92091158	    -41.16337795	      4.42110632	     -9.81121899	     -2.55178328	     -6.09762679	     -4.74161297	     10.89358797
      0.84150000	      1.92502737	      4.51031866	     -3.69930128	     -0.33286986	      1.02817934	      0.27106404	     -5.14121071	     -1.16083430	      2.05686574	     -4.65624944	      8.17566821	     -9.77663383	      5.63607245	     22.32298872	      2.89417129	     -7.86594241	    -39.55997888	      4.19939012	     -9.63186812	     -2.46006117	     -6.03283960	     -4.72244725	     11.03487129
      0.84566667	      1.89742776	      4.49842505	     -3.77409677	     -0.32782008	      1.02775938	      0.27098487	     -5.52008768	     -1.18740418	      2.05442310	     -4.44840032	      8.30661049	     -9.66287972	      5.65934448	     22.33567081	      2.90568677	     -7.76691863	    -37.91021379	      3.95026324	     -9.53942834	     -2.34078176	     -6.03800920	     -4.69394301	     11.20908280
